<svg width="82" height="70" viewBox="0 0 82 70" fill="none" xmlns="http://www.w3.org/2000/svg">
<path d="M30 12C33.6246 12 37.1008 13.4399 39.6638 16.0029C42.2268 18.5659 43.6666 22.042 43.6666 25.6667C43.6666 29.2913 42.2268 32.7675 39.6638 35.3305C37.1008 37.8935 33.6246 39.3333 30 39.3333C26.3753 39.3333 22.8992 37.8935 20.3362 35.3305C17.7732 32.7675 16.3333 29.2913 16.3333 25.6667C16.3333 22.042 17.7732 18.5659 20.3362 16.0029C22.8992 13.4399 26.3753 12 30 12ZM30 48.6667C34.77 48.6667 41.9769 49.8715 47.966 52.2708C50.9598 53.4701 53.5864 54.9432 55.4485 56.6618C57.3038 58.3742 58.3333 60.2623 58.3333 62.3333V68.6667H1.66663V62.3333C1.66663 60.2623 2.69616 58.3742 4.55147 56.6618C6.41357 54.9432 9.04015 53.4701 12.0339 52.2708C18.023 49.8715 25.23 48.6667 30 48.6667ZM58.4075 13.7846C64.5528 21.1376 64.5212 30.7963 58.4373 37.5421L53.5785 32.6544C56.2782 28.3252 56.2782 22.9714 53.5785 18.6422L58.4075 13.7846ZM65.9872 6.01701L70.5702 1.43401C83.6714 15.6386 83.5613 36.2623 70.5816 49.9107L65.9713 45.3004C75.6326 33.5662 75.6634 17.2445 65.9872 6.01701Z" stroke="black" stroke-width="2"/>
</svg>
