<svg width="74" height="64" viewBox="0 0 74 64" fill="none" xmlns="http://www.w3.org/2000/svg">
<path d="M31.5067 62.2629H42.5086M31.5067 62.2629L32.8819 51.261H41.1334L42.5086 62.2629M31.5067 62.2629H23.2553M42.5086 62.2629H50.76M6.75242 1.75238H67.2629C68.7218 1.75238 70.121 2.33194 71.1527 3.36357C72.1843 4.3952 72.7639 5.79439 72.7639 7.25333V45.76C72.7639 47.2189 72.1843 48.6181 71.1527 49.6498C70.121 50.6814 68.7218 51.261 67.2629 51.261H6.75242C5.29347 51.261 3.89429 50.6814 2.86266 49.6498C1.83103 48.6181 1.25146 47.2189 1.25146 45.76V7.25333C1.25146 5.79439 1.83103 4.3952 2.86266 3.36357C3.89429 2.33194 5.29347 1.75238 6.75242 1.75238Z" stroke="black" stroke-width="2" stroke-linecap="round" stroke-linejoin="round"/>
</svg>
