<svg width="88" height="88" viewBox="0 0 88 88" fill="none" xmlns="http://www.w3.org/2000/svg">
<path d="M2.74999 45.76H15.51V13.75C15.51 13.2028 15.9527 12.76 16.5 12.76H44C44.4482 12.76 44.8415 13.0598 44.957 13.4943L55.957 54.6535L55.9322 54.659C55.9707 54.7663 55.99 54.8818 55.99 55V62.4278C58.113 62.0208 60.4367 62.4113 62.26 63.437V22.99H55V21.01H63.25C63.7972 21.01 64.24 21.4528 64.24 22V64.9275C65.9367 66.6023 66.99 68.9315 66.99 71.5C66.99 76.5958 62.8457 80.74 57.75 80.74C52.9897 80.74 49.0572 77.121 48.5622 72.49H25.6877C25.1927 77.121 21.263 80.74 16.5 80.74C11.737 80.74 7.80724 77.121 7.31224 72.49H2.74999C2.20274 72.49 1.75999 72.0473 1.75999 71.5V46.75C1.75999 46.2028 2.20274 45.76 2.74999 45.76ZM57.75 78.76C61.754 78.76 65.01 75.504 65.01 71.5C65.01 67.496 61.7512 64.24 57.75 64.24C53.7487 64.24 50.49 67.496 50.49 71.5C50.49 75.504 53.746 78.76 57.75 78.76ZM42.24 70.51H48.5622C48.9197 67.1743 51.0592 64.3638 54.01 63.052V55.99H42.24V70.51ZM53.735 54.01L50.501 41.91L39.7925 35.728L38.225 38.445C38.0435 38.7613 37.708 38.94 37.367 38.94C37.1965 38.94 37.0287 38.8988 36.872 38.808C36.3962 38.533 36.2367 37.928 36.509 37.455L40.6312 30.3105C40.9062 29.8375 41.5085 29.6753 41.9842 29.9475C42.4572 30.2225 42.6195 30.8275 42.3472 31.3005L40.7797 34.0148L49.775 39.2068L43.2355 14.74H17.4872V45.76H35.75C36.08 45.76 36.388 45.925 36.575 46.2L41.7808 54.0073L53.735 54.01ZM16.5 78.76C20.504 78.76 23.76 75.504 23.76 71.5C23.76 67.496 20.504 64.24 16.5 64.24C12.496 64.24 9.24 67.496 9.24 71.5C9.24 75.504 12.496 78.76 16.5 78.76ZM3.74 70.51H7.31224C7.80724 65.879 11.737 62.26 16.5 62.26C21.263 62.26 25.1927 65.879 25.6877 70.51H40.26V55.3025L35.222 47.7428H3.74V70.51ZM72.49 35.75H70.51V74.25C70.51 74.7973 70.9527 75.24 71.5 75.24H85.25V73.26H72.49V35.75Z" fill="black"/>
</svg>
