<svg width="59" height="70" viewBox="0 0 59 70" fill="none" xmlns="http://www.w3.org/2000/svg">
<mask id="path-1-inside-1_19_217" fill="white">
<path d="M44 26C44 45.5433 14.6667 45.5433 14.6667 26H22C22 35.79 36.6667 35.79 36.6667 26M58.6667 59V70H0V59C0 49.21 19.5433 44.3333 29.3333 44.3333C39.1233 44.3333 58.6667 49.21 58.6667 59ZM51.7 59C51.7 56.6533 40.2233 51.3 29.3333 51.3C18.4433 51.3 6.96667 56.6533 6.96667 59V63.0333H51.7M31.1667 0.333336C32.1933 0.333336 33 1.14 33 2.16667V13.1667H36.6667V4C39.2616 5.20092 41.4357 7.15404 42.9068 9.60592C44.3779 12.0578 45.0782 14.8952 44.9167 17.75C44.9167 17.75 47.4833 18.2633 47.6667 22.3333H11C11 18.2633 13.75 17.75 13.75 17.75C13.5885 14.8952 14.2887 12.0578 15.7599 9.60592C17.231 7.15404 19.4051 5.20092 22 4V13.1667H25.6667V2.16667C25.6667 1.14 26.4733 0.333336 27.5 0.333336"/>
</mask>
<path d="M14.6667 26V24.5H13.1667V26H14.6667ZM22 26H23.5V24.5H22V26ZM58.6667 70V71.5H60.1667V70H58.6667ZM0 70H-1.5V71.5H0V70ZM6.96667 63.0333H5.46667V64.5333H6.96667V63.0333ZM33 13.1667H31.5V14.6667H33V13.1667ZM36.6667 13.1667V14.6667H38.1667V13.1667H36.6667ZM36.6667 4L37.2967 2.63871L35.1667 1.65297V4H36.6667ZM44.9167 17.75L43.4191 17.6653L43.3455 18.9655L44.6225 19.2209L44.9167 17.75ZM47.6667 22.3333V23.8333H49.2358L49.1651 22.2658L47.6667 22.3333ZM11 22.3333H9.5V23.8333H11V22.3333ZM13.75 17.75L14.0252 19.2245L15.3221 18.9824L15.2476 17.6653L13.75 17.75ZM22 4H23.5V1.65297L21.37 2.63871L22 4ZM22 13.1667H20.5V14.6667H22V13.1667ZM25.6667 13.1667V14.6667H27.1667V13.1667H25.6667ZM42.5 26C42.5 30.4785 40.8345 33.7273 38.4205 35.8717C35.9788 38.0407 32.6806 39.1575 29.3333 39.1575C25.986 39.1575 22.6879 38.0407 20.2462 35.8717C17.8322 33.7273 16.1667 30.4785 16.1667 26H13.1667C13.1667 31.2932 15.1678 35.3732 18.2538 38.1145C21.3121 40.8314 25.3473 42.1575 29.3333 42.1575C33.3194 42.1575 37.3545 40.8314 40.4129 38.1145C43.4989 35.3732 45.5 31.2932 45.5 26H42.5ZM14.6667 27.5H22V24.5H14.6667V27.5ZM20.5 26C20.5 28.8539 21.5837 31.1048 23.2944 32.6274C24.9777 34.1255 27.1799 34.8425 29.3333 34.8425C31.4868 34.8425 33.689 34.1255 35.3722 32.6274C37.083 31.1048 38.1667 28.8539 38.1667 26H35.1667C35.1667 28.0411 34.417 29.4614 33.3778 30.3864C32.311 31.3358 30.8466 31.8425 29.3333 31.8425C27.8201 31.8425 26.3557 31.3358 25.2889 30.3864C24.2496 29.4614 23.5 28.0411 23.5 26H20.5ZM57.1667 59V70H60.1667V59H57.1667ZM58.6667 68.5H0V71.5H58.6667V68.5ZM1.5 70V59H-1.5V70H1.5ZM1.5 59C1.5 57.1018 2.43516 55.333 4.22447 53.68C6.02456 52.017 8.58938 50.5729 11.5523 49.3882C17.4805 47.0178 24.6244 45.8333 29.3333 45.8333V42.8333C24.2523 42.8333 16.7295 44.0872 10.4385 46.6026C7.29187 47.8608 4.35899 49.4715 2.18876 51.4764C0.00775935 53.4912 -1.5 56.0032 -1.5 59H1.5ZM29.3333 45.8333C34.0423 45.8333 41.1862 47.0178 47.1143 49.3882C50.0773 50.5729 52.6421 52.017 54.4422 53.68C56.2315 55.333 57.1667 57.1018 57.1667 59H60.1667C60.1667 56.0032 58.6589 53.4912 56.4779 51.4764C54.3077 49.4715 51.3748 47.8608 48.2282 46.6026C41.9371 44.0872 34.4144 42.8333 29.3333 42.8333V45.8333ZM53.2 59C53.2 58.1352 52.7046 57.4392 52.2987 56.9899C51.8494 56.4925 51.248 56.0123 50.5695 55.5593C49.2037 54.6476 47.3215 53.7118 45.1402 52.8705C40.7768 51.1875 35.0007 49.8 29.3333 49.8V52.8C34.5559 52.8 39.9632 54.0891 44.0606 55.6695C46.1097 56.4598 47.7774 57.3024 48.9038 58.0544C49.4714 58.4333 49.8516 58.7564 50.0725 59.0009C50.3368 59.2935 50.2 59.2781 50.2 59H53.2ZM29.3333 49.8C23.6659 49.8 17.8899 51.1875 13.5265 52.8705C11.3451 53.7118 9.46298 54.6476 8.09721 55.5593C7.41872 56.0123 6.81729 56.4925 6.36795 56.9899C5.96209 57.4392 5.46667 58.1352 5.46667 59H8.46667C8.46667 59.2781 8.32989 59.2935 8.5942 59.0009C8.81503 58.7564 9.19529 58.4333 9.7629 58.0544C10.8893 57.3024 12.5569 56.4598 14.606 55.6695C18.7035 54.0891 24.1107 52.8 29.3333 52.8V49.8ZM5.46667 59V63.0333H8.46667V59H5.46667ZM6.96667 64.5333H51.7V61.5333H6.96667V64.5333ZM31.1667 1.83334C31.2777 1.83334 31.3558 1.87376 31.4077 1.92566C31.4596 1.97757 31.5 2.05568 31.5 2.16667H34.5C34.5 0.311575 33.0218 -1.16666 31.1667 -1.16666V1.83334ZM31.5 2.16667V13.1667H34.5V2.16667H31.5ZM33 14.6667H36.6667V11.6667H33V14.6667ZM38.1667 13.1667V4H35.1667V13.1667H38.1667ZM36.0367 5.36129C38.3587 6.43592 40.3042 8.18364 41.6206 10.3777L44.1931 8.83417C42.5672 6.12445 40.1645 3.96593 37.2967 2.63871L36.0367 5.36129ZM41.6206 10.3777C42.937 12.5717 43.5636 15.1107 43.4191 17.6653L46.4143 17.8347C46.5928 14.6797 45.8189 11.5439 44.1931 8.83417L41.6206 10.3777ZM44.9167 17.75C44.6225 19.2209 44.6214 19.2207 44.6203 19.2204C44.62 19.2204 44.6189 19.2202 44.6183 19.22C44.6169 19.2197 44.6155 19.2195 44.6142 19.2192C44.6116 19.2187 44.6091 19.2181 44.6068 19.2176C44.6021 19.2166 44.598 19.2157 44.5943 19.2149C44.5871 19.2133 44.5819 19.212 44.5786 19.2112C44.5722 19.2096 44.5733 19.2097 44.581 19.2121C44.5965 19.2169 44.6371 19.2306 44.695 19.2571C44.8108 19.3103 44.9915 19.4128 45.1849 19.5982C45.5406 19.9392 46.0919 20.7063 46.1682 22.4008L49.1651 22.2658C49.0581 19.8904 48.2344 18.3658 47.2609 17.4326C46.7898 16.9809 46.3173 16.7008 45.9461 16.5305C45.7606 16.4453 45.5992 16.3871 45.4736 16.348C45.4108 16.3284 45.3566 16.3135 45.3124 16.3023C45.2903 16.2968 45.2707 16.2921 45.2537 16.2883C45.2453 16.2864 45.2374 16.2847 45.2303 16.2831C45.2267 16.2824 45.2233 16.2817 45.22 16.281C45.2184 16.2807 45.2168 16.2803 45.2153 16.28C45.2145 16.2799 45.2134 16.2796 45.213 16.2796C45.2119 16.2794 45.2108 16.2791 44.9167 17.75ZM47.6667 20.8333H11V23.8333H47.6667V20.8333ZM12.5 22.3333C12.5 20.6761 13.0415 19.9428 13.3946 19.6157C13.5919 19.4328 13.7845 19.3275 13.9167 19.2701C13.9824 19.2417 14.0306 19.2262 14.0528 19.2197C14.0637 19.2165 14.0677 19.2157 14.0637 19.2167C14.0616 19.2171 14.0575 19.2181 14.0511 19.2194C14.048 19.2201 14.0442 19.2209 14.0399 19.2217C14.0378 19.2221 14.0355 19.2226 14.033 19.2231C14.0318 19.2233 14.0306 19.2235 14.0293 19.2238C14.0286 19.2239 14.0276 19.2241 14.0273 19.2242C14.0263 19.2243 14.0252 19.2245 13.75 17.75C13.4748 16.2755 13.4737 16.2757 13.4727 16.2759C13.4723 16.2759 13.4712 16.2761 13.4705 16.2763C13.469 16.2766 13.4675 16.2768 13.466 16.2771C13.4629 16.2777 13.4596 16.2784 13.4561 16.2791C13.4491 16.2804 13.4415 16.282 13.4331 16.2838C13.4163 16.2873 13.3968 16.2916 13.3746 16.2969C13.3302 16.3073 13.2751 16.3215 13.2109 16.3403C13.0827 16.3778 12.916 16.4342 12.7239 16.5175C12.3405 16.6836 11.8456 16.961 11.3554 17.4152C10.3335 18.3622 9.5 19.9206 9.5 22.3333H12.5ZM15.2476 17.6653C15.1031 15.1107 15.7297 12.5717 17.0461 10.3777L14.4736 8.83417C12.8478 11.5439 12.0739 14.6797 12.2524 17.8347L15.2476 17.6653ZM17.0461 10.3777C18.3625 8.18364 20.308 6.43592 22.63 5.36129L21.37 2.63871C18.5022 3.96593 16.0994 6.12445 14.4736 8.83417L17.0461 10.3777ZM20.5 4V13.1667H23.5V4H20.5ZM22 14.6667H25.6667V11.6667H22V14.6667ZM27.1667 13.1667V2.16667H24.1667V13.1667H27.1667ZM27.1667 2.16667C27.1667 2.05568 27.2071 1.97757 27.259 1.92566C27.3109 1.87376 27.389 1.83334 27.5 1.83334V-1.16666C25.6449 -1.16666 24.1667 0.311575 24.1667 2.16667H27.1667Z" fill="black" mask="url(#path-1-inside-1_19_217)"/>
</svg>
