<svg width="65" height="59" viewBox="0 0 65 59" fill="none" xmlns="http://www.w3.org/2000/svg">
<path d="M27 46.5C27 53.4036 21.4036 59 14.5 59C7.59644 59 2 53.4036 2 46.5C2 39.5964 7.59644 34 14.5 34C21.4036 34 27 39.5964 27 46.5Z" fill="url(#paint0_linear_1_31)"/>
<path d="M63 46.5C63 53.4036 57.4036 59 50.5 59C43.5964 59 38 53.4036 38 46.5C38 39.5964 43.5964 34 50.5 34C57.4036 34 63 39.5964 63 46.5Z" fill="url(#paint1_linear_1_31)"/>
<path d="M22.309 40H14.929V21.755H8.328V16.63H28.91V21.755H22.309V40ZM37.7173 30.57V40H30.8703V16.63H37.7993L43.9903 26.06C44.9196 27.454 45.6303 28.6293 46.1223 29.586H46.2453V25.65V16.63H53.0513V40H46.0813L39.7263 30.16L37.8813 27.372H37.7583L37.7173 30.57Z" fill="#046CB4"/>
<path d="M0 44H64.5" stroke="black" stroke-width="2"/>
<circle cx="14.5" cy="49.5" r="1.5" fill="#D9D9D9"/>
<circle cx="50.5" cy="49.5" r="1.5" fill="#D9D9D9"/>
<defs>
<linearGradient id="paint0_linear_1_31" x1="14.5" y1="58.4318" x2="14.5" y2="34.5682" gradientUnits="userSpaceOnUse">
<stop offset="0.463542"/>
<stop offset="0.463642" stop-color="#1A4EC3"/>
<stop offset="0.463742" stop-color="#D9D9D9"/>
<stop offset="0.463842" stop-color="#1A4EC3" stop-opacity="0"/>
</linearGradient>
<linearGradient id="paint1_linear_1_31" x1="50.5" y1="58.4318" x2="50.5" y2="34.5682" gradientUnits="userSpaceOnUse">
<stop offset="0.463542"/>
<stop offset="0.463642" stop-color="#1A4EC3"/>
<stop offset="0.463742" stop-color="#D9D9D9"/>
<stop offset="0.463842" stop-color="#1A4EC3" stop-opacity="0"/>
</linearGradient>
</defs>
</svg>
